<?xml version="1.0" encoding="utf-8"?>
<!-- Generator: Adobe Illustrator 25.4.1, SVG Export Plug-In . SVG Version: 6.00 Build 0)  -->
<svg version="1.1" id="Layer_1" xmlns="http://www.w3.org/2000/svg" xmlns:xlink="http://www.w3.org/1999/xlink" x="0px" y="0px"
	 viewBox="0 0 1080 1080" style="enable-background:new 0 0 1080 1080;" xml:space="preserve">
<style type="text/css">
	.st0{fill:#EFEFEF;}
	.st1{fill:url(#SVGID_1_);}
	.st2{fill:none;stroke:#0058FF;stroke-width:0.1;stroke-miterlimit:10;}
	.st3{fill:url(#SVGID_00000025438979777378588300000007882804735259431315_);}
	.st4{fill:url(#SVGID_00000118355529645622937460000006447475136950256319_);}
	.st5{fill:url(#SVGID_00000178168546092511496340000006375009854049443722_);}
	.st6{fill:#231F20;}
	.st7{fill:#FFFFFF;}
	.st8{fill:none;stroke:#231F20;stroke-width:0.25;stroke-miterlimit:10;}
	.st9{fill:#101415;}
	.st10{fill:#F37937;}
	.st11{fill:#117A8E;}
	.st12{fill:none;stroke:#231F20;stroke-width:0.3535;stroke-miterlimit:10;}
	.st13{fill:#F68E39;}
	.st14{fill:#0058FF;}
	.st15{fill:#1B75BB;}
	.st16{fill:#FFFFFF;stroke:#231F20;stroke-width:0.25;stroke-miterlimit:10;}
	.st17{fill:none;stroke:#231F20;stroke-width:2;stroke-miterlimit:10;}
	.st18{fill:#1A1617;}
	.st19{fill:#3A65AE;}
	.st20{fill:#070808;}
	.st21{fill:#F6BB5C;}
	.st22{fill:#FDC57A;}
	.st23{fill:#75CDE8;}
	.st24{fill:#0F102A;}
	.st25{fill:#0D1129;}
	.st26{fill:url(#SVGID_00000104679367304419472230000004760760300298698926_);}
	.st27{fill:#000114;}
	.st28{fill:#070908;}
	.st29{fill:#FDDF00;}
	.st30{fill:#191646;}
	.st31{fill:#498AC0;}
	.st32{fill:#1C0091;}
	.st33{fill:#FA8F37;}
	.st34{fill:url(#SVGID_00000057840053856877370500000015658554579559445176_);}
	.st35{fill:none;stroke:#0058FF;stroke-miterlimit:10;}
	.st36{fill:#F3F8FF;}
	.st37{fill:#040019;}
	.st38{opacity:0.55;}
	.st39{fill:none;stroke:#FFFFFF;stroke-miterlimit:10;}
	.st40{fill:none;stroke:#FA8F37;stroke-miterlimit:10;}
	.st41{fill:#D8D8D8;}
	.st42{fill:#E8E8E8;}
	.st43{fill:none;stroke:#231F20;stroke-width:0.75;stroke-miterlimit:10;}
	.st44{fill:none;stroke:#231F20;stroke-width:0.75;stroke-miterlimit:10;stroke-dasharray:1.9888,1.9888;}
	.st45{fill:none;stroke:#231F20;stroke-width:0.75;stroke-miterlimit:10;stroke-dasharray:2.0044,2.0044;}
	.st46{fill:none;stroke:#231F20;stroke-width:0.75;stroke-miterlimit:10;stroke-dasharray:2.004,2.004;}
	.st47{fill:none;stroke:#231F20;stroke-width:0.75;stroke-miterlimit:10;stroke-dasharray:1.9963,1.9963;}
	.st48{fill:none;stroke:#231F20;stroke-width:0.75;stroke-miterlimit:10;stroke-dasharray:2.0034,2.0034;}
	.st49{fill:none;stroke:#231F20;stroke-width:0.75;stroke-miterlimit:10;stroke-dasharray:2.0168,2.0168;}
	.st50{fill:none;stroke:#231F20;stroke-width:0.75;stroke-miterlimit:10;stroke-dasharray:1.9789,1.9789;}
	.st51{fill:none;stroke:#231F20;stroke-width:0.5;stroke-miterlimit:10;}
	.st52{fill:none;stroke:#231F20;stroke-width:0.5;stroke-miterlimit:10;stroke-dasharray:1.9965,1.9965;}
	.st53{fill:none;stroke:#231F20;stroke-width:0.75;stroke-miterlimit:10;stroke-dasharray:1.989,1.989;}
	.st54{fill:none;stroke:#231F20;stroke-width:0.75;stroke-miterlimit:10;stroke-dasharray:2.0008,2.0008;}
	.st55{fill:none;stroke:#231F20;stroke-width:0.75;stroke-miterlimit:10;stroke-dasharray:2.0036,2.0036;}
	.st56{fill:none;stroke:#231F20;stroke-width:0.75;stroke-miterlimit:10;stroke-dasharray:1.9914,1.9914;}
	.st57{fill:#FFFFFF;stroke:#FFFFFF;stroke-miterlimit:10;}
	.st58{fill:none;stroke:#FFFFFF;stroke-width:0.75;stroke-miterlimit:10;}
	.st59{fill:none;stroke:#FFFFFF;stroke-width:0.75;stroke-miterlimit:10;stroke-dasharray:1.9888,1.9888;}
	.st60{fill:none;stroke:#FFFFFF;stroke-width:0.75;stroke-miterlimit:10;stroke-dasharray:2.0044,2.0044;}
	.st61{fill:none;stroke:#FFFFFF;stroke-width:0.75;stroke-miterlimit:10;stroke-dasharray:2.004,2.004;}
	.st62{fill:none;stroke:#FFFFFF;stroke-width:0.75;stroke-miterlimit:10;stroke-dasharray:1.9992,1.9992;}
	.st63{fill:none;stroke:#FFFFFF;stroke-width:0.75;stroke-miterlimit:10;stroke-dasharray:1.9963,1.9963;}
	.st64{fill:none;stroke:#FFFFFF;stroke-width:0.75;stroke-miterlimit:10;stroke-dasharray:2.0034,2.0034;}
	.st65{fill:none;stroke:#FFFFFF;stroke-width:0.75;stroke-miterlimit:10;stroke-dasharray:2.0168,2.0168;}
	.st66{fill:none;stroke:#FFFFFF;stroke-width:0.75;stroke-miterlimit:10;stroke-dasharray:1.9789,1.9789;}
	.st67{fill:none;stroke:#FFFFFF;stroke-width:0.5;stroke-miterlimit:10;}
	.st68{fill:none;stroke:#FFFFFF;stroke-width:0.5;stroke-miterlimit:10;stroke-dasharray:1.9965,1.9965;}
	.st69{fill:none;stroke:#FFFFFF;stroke-width:0.75;stroke-miterlimit:10;stroke-dasharray:1.9778,1.9778;}
	.st70{fill:none;stroke:#FFFFFF;stroke-width:0.75;stroke-miterlimit:10;stroke-dasharray:1.9876,1.9876;}
	.st71{fill:none;stroke:#FFFFFF;stroke-width:0.75;stroke-miterlimit:10;stroke-dasharray:1.9904,1.9904;}
	.st72{fill:none;stroke:#FFFFFF;stroke-width:0.75;stroke-miterlimit:10;stroke-dasharray:1.9835,1.9835;}
</style>
<g>
	<path class="st33" d="M401.3,465.94v76.7c0,7.78-2.97,15.57-8.92,21.52l-22.36,22.36h-2.93c-0.4-24.84-10.56-42.04-29.9-53.45
		c-9.32-5.5-20.82-9.67-34.36-12.64l-72.24-15.92c-15.47-3.77-23.75-8.92-23.75-20.67c0-11.85,7.98-17.9,23.75-17.9H401.3z"/>
	<path class="st14" d="M113.07,606.15v-76.7c0-7.78,2.97-15.57,8.92-21.52l22.36-22.36h2.93c0.4,24.84,10.56,42.04,29.9,53.45
		c9.32,5.5,20.82,9.67,34.36,12.64l72.24,15.92c15.47,3.77,23.75,8.92,23.75,20.67c0,11.85-7.98,17.9-23.75,17.9H113.07z"/>
	<g>
		<path class="st14" d="M450.49,594.06l-10.72-14.98h3.03l9.01,12.77l9.01-12.77h3.03l-10.72,14.98v12.08h-2.65V594.06z"/>
		<path class="st14" d="M461.5,596.24c0-6.59,5.72-10.29,11.44-10.29s11.44,3.7,11.44,10.29c0,6.59-5.72,10.29-11.44,10.29
			S461.5,602.83,461.5,596.24z M472.94,604.39c4.48,0,8.84-2.9,8.84-8.16s-4.36-8.16-8.84-8.16c-4.48,0-8.84,2.9-8.84,8.16
			S468.46,604.39,472.94,604.39z"/>
		<path class="st14" d="M507.78,606.15h-2.6v-3.47c-1.11,1.94-3.59,3.85-7.69,3.85c-4.74,0-8.79-2.63-8.79-8.54v-11.66h2.6v11.4
			c0,4.54,3.03,6.67,6.87,6.67c3.8,0,7-2.13,7-6.67v-11.4h2.6V606.15z"/>
		<path class="st14" d="M513.15,586.33h2.6v4.61c0.9-2.67,3.12-4.99,7.22-4.99c0.51,0,0.85,0.04,1.15,0.12v2.17
			c-0.34-0.08-0.64-0.11-1.11-0.11c-4.06,0-7.26,2.86-7.26,7.51v10.52h-2.6V586.33z"/>
		<path class="st14" d="M536.89,579.08h8.2c9.22,0,15.03,5.45,15.03,13.53s-5.81,13.53-15.03,13.53h-8.2V579.08z M545,603.9
			c7.94,0,12.38-4.46,12.38-11.28c0-6.82-4.44-11.28-12.38-11.28h-5.46v22.56H545z"/>
		<path class="st14" d="M564.63,579.08h2.6v2.25h-2.6V579.08z M564.63,586.33h2.6v19.82h-2.6V586.33z"/>
		<path class="st14" d="M576.63,612.66v-2.06c1.02,0.61,3.16,1.45,6.23,1.45c4.44,0,8.71-1.75,8.71-6.94v-3.2h-0.17
			c-1.28,2.55-4.7,4.61-8.88,4.61c-5.46,0-10.97-3.54-10.97-10.29c0-6.75,5.51-10.29,10.97-10.29c4.18,0,7.6,2.06,8.88,4.61h0.17
			v-4.23h2.6v18.91c0,6.71-5.81,8.84-11.01,8.84C580,614.07,577.61,613.27,576.63,612.66z M582.86,604.39
			c4.35,0,8.79-2.71,8.79-8.16c0-5.45-4.44-8.16-8.79-8.16c-4.31,0-8.71,2.67-8.71,8.16C574.15,601.73,578.55,604.39,582.86,604.39z
			"/>
		<path class="st14" d="M599.55,579.08h2.6v2.25h-2.6V579.08z M599.55,586.33h2.6v19.82h-2.6V586.33z"/>
		<path class="st14" d="M609.33,602.79v-14.52h-2.86v-1.94h2.86v-5.07h2.6v5.07h4.31v1.94h-4.31v14.03c0,1.3,0.73,1.98,2.22,1.98
			c0.51,0,1.2-0.08,2.01-0.38v1.91c-0.77,0.46-1.71,0.57-2.56,0.57C611.04,606.38,609.33,605.27,609.33,602.79z"/>
		<path class="st14" d="M619.49,596.24c0-6.75,5.46-10.29,11.02-10.29c4.18,0,7.6,2.06,8.88,4.61h0.13v-4.23h2.6v19.82h-2.6v-4.23
			h-0.13c-1.28,2.55-4.7,4.61-8.88,4.61C624.95,606.53,619.49,602.98,619.49,596.24z M630.85,604.39c4.35,0,8.75-2.71,8.75-8.16
			c0-5.45-4.4-8.16-8.75-8.16c-4.36,0-8.75,2.67-8.75,8.16C622.09,601.73,626.49,604.39,630.85,604.39z"/>
		<path class="st14" d="M647.49,579.08h2.6v27.06h-2.6V579.08z"/>
		<path class="st14" d="M663.71,599.97l2.22-0.88c0.85,3.13,3.84,5.18,7.73,5.18c3.63,0,6.66-1.79,6.66-5.18
			c0-3.2-2.6-4.57-6.36-5.91l-2.05-0.72c-4.57-1.6-6.92-3.89-6.92-7.13c0-4,3.63-6.63,8.37-6.63c4.91,0,7.77,2.67,8.88,5.6
			l-2.09,0.92c-1.15-2.59-3.29-4.31-6.7-4.31c-3.29,0-5.81,1.68-5.81,4.42c0,2.17,1.45,3.85,5.21,5.15l2.05,0.72
			c4.78,1.71,8.15,3.62,8.15,7.89c0,4.8-4.35,7.43-9.39,7.43C668.58,606.53,664.7,603.86,663.71,599.97z"/>
		<path class="st14" d="M686.3,596.24c0-6.59,5.72-10.29,11.44-10.29s11.44,3.7,11.44,10.29c0,6.59-5.72,10.29-11.44,10.29
			S686.3,602.83,686.3,596.24z M697.74,604.39c4.48,0,8.84-2.9,8.84-8.16s-4.36-8.16-8.84-8.16c-4.48,0-8.84,2.9-8.84,8.16
			S693.25,604.39,697.74,604.39z"/>
		<path class="st14" d="M713.49,579.08h2.6v27.06h-2.6V579.08z"/>
		<path class="st14" d="M740.56,606.15h-2.6v-3.47c-1.11,1.94-3.59,3.85-7.69,3.85c-4.74,0-8.79-2.63-8.79-8.54v-11.66h2.6v11.4
			c0,4.54,3.03,6.67,6.87,6.67c3.8,0,7-2.13,7-6.67v-11.4h2.6V606.15z"/>
		<path class="st14" d="M747.73,602.79v-14.52h-2.86v-1.94h2.86v-5.07h2.6v5.07h4.31v1.94h-4.31v14.03c0,1.3,0.73,1.98,2.22,1.98
			c0.51,0,1.2-0.08,2.01-0.38v1.91c-0.77,0.46-1.71,0.57-2.56,0.57C749.43,606.38,747.73,605.27,747.73,602.79z"/>
		<path class="st14" d="M759.17,579.08h2.6v2.25h-2.6V579.08z M759.17,586.33h2.6v19.82h-2.6V586.33z"/>
		<path class="st14" d="M766.08,596.24c0-6.59,5.72-10.29,11.44-10.29s11.44,3.7,11.44,10.29c0,6.59-5.72,10.29-11.44,10.29
			S766.08,602.83,766.08,596.24z M777.52,604.39c4.48,0,8.84-2.9,8.84-8.16s-4.36-8.16-8.84-8.16c-4.48,0-8.84,2.9-8.84,8.16
			S773.04,604.39,777.52,604.39z"/>
		<path class="st14" d="M793.27,586.33h2.6v3.47c1.11-1.94,3.59-3.85,7.69-3.85c4.74,0,8.79,2.63,8.79,8.54v11.66h-2.6v-11.4
			c0-4.54-3.03-6.67-6.87-6.67c-3.8,0-7,2.13-7,6.67v11.4h-2.6V586.33z"/>
		<path class="st14" d="M827.04,579.08h9.48c6.49,0,10.25,3.7,10.25,8.61c0,5.03-3.76,8.69-10.25,8.69h-6.83v9.76h-2.65V579.08z
			 M836.31,594.14c4.78,0,7.73-2.33,7.73-6.44s-2.95-6.37-7.73-6.37h-6.62v12.81H836.31z"/>
		<path class="st14" d="M849.37,596.24c0-6.75,5.46-10.29,11.02-10.29c4.18,0,7.6,2.06,8.88,4.61h0.13v-4.23h2.6v19.82h-2.6v-4.23
			h-0.13c-1.28,2.55-4.7,4.61-8.88,4.61C854.83,606.53,849.37,602.98,849.37,596.24z M860.72,604.39c4.35,0,8.75-2.71,8.75-8.16
			c0-5.45-4.4-8.16-8.75-8.16c-4.36,0-8.75,2.67-8.75,8.16C851.97,601.73,856.37,604.39,860.72,604.39z"/>
		<path class="st14" d="M877.37,586.33h2.6v4.61c0.9-2.67,3.12-4.99,7.22-4.99c0.51,0,0.85,0.04,1.15,0.12v2.17
			c-0.34-0.08-0.64-0.11-1.11-0.11c-4.06,0-7.26,2.86-7.26,7.51v10.52h-2.6V586.33z"/>
		<path class="st14" d="M894.45,602.79v-14.52h-2.86v-1.94h2.86v-5.07h2.6v5.07h4.31v1.94h-4.31v14.03c0,1.3,0.73,1.98,2.22,1.98
			c0.51,0,1.2-0.08,2.01-0.38v1.91c-0.77,0.46-1.71,0.57-2.56,0.57C896.15,606.38,894.45,605.27,894.45,602.79z"/>
		<path class="st14" d="M905.89,586.33h2.6v3.47c1.11-1.94,3.59-3.85,7.68-3.85c4.74,0,8.8,2.63,8.8,8.54v11.66h-2.6v-11.4
			c0-4.54-3.03-6.67-6.87-6.67c-3.8,0-7,2.13-7,6.67v11.4h-2.6V586.33z"/>
		<path class="st14" d="M929.28,596.2c0-6.63,5.42-10.25,10.97-10.25c5.64,0,11.31,3.66,10.59,11.13h-19.08
			c0.43,4.8,4.44,7.39,9.09,7.39c2.82,0,5.42-0.95,7.04-2.67l1.37,1.26c-2.01,2.21-5.25,3.47-8.71,3.47
			C934.66,606.53,929.28,602.87,929.28,596.2z M948.49,595.21c-0.13-4.65-4.01-7.2-8.24-7.2c-4.1,0-8.03,2.48-8.5,7.2H948.49z"/>
		<path class="st14" d="M955.19,586.33h2.6v4.61c0.9-2.67,3.12-4.99,7.22-4.99c0.51,0,0.85,0.04,1.15,0.12v2.17
			c-0.34-0.08-0.64-0.11-1.11-0.11c-4.06,0-7.26,2.86-7.26,7.51v10.52h-2.6V586.33z"/>
	</g>
	<path class="st14" d="M441.15,568.5c-0.93,0-1.43-0.5-1.43-1.57v-11.21c0.07-5.07,2.64-7.57,7.71-7.57l52.03,0
		c8.07,0,10.56-4.14,10.56-7.64c0-4.5-3.57-7.57-10.71-9.21l-31.69-7.07c-17.99-4.07-27.91-13.13-27.91-28.05
		c0-18.56,14.27-30.05,34.97-30.05h55.81c0.93,0,1.36,0.43,1.36,1.36v11.42c0,5-2.57,7.49-7.71,7.49h-47.89
		c-6.92,0-10.42,2.64-10.42,7.85c0,5.14,3.64,7.42,10.42,9.06l31.69,6.99c18.49,4.07,28.19,13.06,28.19,29.62
		c0,18.34-15.99,28.55-38.61,28.55L441.15,568.5z"/>
	<path class="st14" d="M576.68,568.51c-19.41,0-31.62-9.35-31.62-35.19c0-26.34,14.42-35.76,31.62-35.76h12.92
		c17.2,0,31.62,9.42,31.62,35.76c0,25.84-12.2,35.19-31.62,35.19H576.68z M587.17,551.38c11.35,0,13.06-9.92,13.06-18.49
		c0-8.14-1.71-18.06-13.06-18.06h-7.92c-11.42,0-13.2,9.92-13.2,18.06c0,8.56,1.78,18.49,13.2,18.49H587.17z"/>
	<path class="st14" d="M631.77,568.51c-1.5,0-2.21-0.71-2.21-2.21v-7.21c0-4.78,2.21-7.78,7.42-7.78h32.62c3.93,0,5.21-1.21,5.21-3
		c0-2.21-1.36-3.43-5.64-4.35l-20.98-4.64c-13.2-2.78-19.84-9.56-19.84-20.2c0-12.13,8.64-21.56,24.98-21.56h36.61
		c2,0,3,0.71,3,2.14v7.28c0,4.78-2.21,7.78-7.35,7.78h-32.26c-3.43,0-4.35,1.28-4.35,3c0,1.78,1.43,3.43,5.64,4.35l21.13,4.64
		c13.2,2.86,19.63,9.49,19.63,21.13c0,11.21-7.57,20.63-26.98,20.63H631.77z"/>
	<path class="st33" d="M706.85,568.51c-1.21,0-2.57-0.79-2.57-2.21v-93.52c0-4.57,2.57-6.85,7.78-6.85h10.78
		c1.21,0,2.07,0.43,2.07,2.21v29.42h15.99c2,0,3,0.71,3,2.21v7.21c0,4.78-2.21,7.78-7.42,7.78h-11.56v46.39c0,5.14-3,7.35-7.28,7.35
		H706.85z"/>
	<path class="st33" d="M779.29,568.51c-18.41,0-30.05-9.42-30.05-35.62c0-17.34,5.99-27.34,15.13-31.9
		c4.5-2.28,9.49-3.43,14.92-3.43h12.42c15.7,0,24.27,9.42,24.27,21.41c0,10.78-6.49,16.92-19.34,19.48l-25.98,5.64
		c1.93,5.07,6,7.21,10.78,7.21h29.76c1.21,0,2.21,1.36,2.21,3v6.99c0,4.21-2.21,7.21-7.35,7.21H779.29z M790.07,524.33
		c5.64-1.43,6.14-4.57,6.14-6c0-1.5-1.93-3.57-4.5-3.57h-10.28c-5.57,0-11.85,2.93-11.85,14.35L790.07,524.33z"/>
	<path class="st33" d="M854.66,568.51c-19.27,0-31.55-9.35-31.55-35.19c0-26.34,14.42-35.76,31.55-35.76h28.48
		c1.36,0,2.28,1.36,2.28,3v6.99c0,4.28-2.28,7.21-7.71,7.21H857.3c-11.42,0-13.2,9.85-13.2,18.06c0,8.64,1.78,18.49,13.2,18.49
		h26.48c1.21,0,2.21,1.36,2.21,3v6.99c0,4.28-2.28,7.21-7.78,7.21H854.66z"/>
	<path class="st33" d="M893.12,473.15c0-4.85,3-6.99,8.14-6.99h10.71c1.21,0,1.78,0.71,1.78,2.14v29.26h21.41
		c22.7,0,31.12,9.28,31.12,27.12v36.47c0,5.14-3.57,7.35-7.64,7.35h-10.92c-1.64,0-2.07-0.79-2.07-2.21v-40.75
		c0-5.57-3.85-10.78-12.42-10.78h-19.49v46.39c0,5.14-2.57,7.35-6.85,7.35h-10.78c-2,0-3-0.71-3-2.21V473.15z"/>
</g>
</svg>
